<svg xmlns="http://www.w3.org/2000/svg" xmlns:xlink="http://www.w3.org/1999/xlink" width="1800" height="900" viewBox="0 0 1800 900"><rect width="100%" height="100%" fill="#DDDDDD"/><path d="M427.91 507.83L455.86 507.83L455.86 527.72L369.86 527.72L369.86 507.83L401.36 507.83L401.36 417.21Q401.36 411.84 401.68 406.14L401.68 406.14L379.32 424.84Q377.39 426.35 375.51 426.73Q373.63 427.10 371.96 426.78Q370.29 426.46 369.00 425.65Q367.71 424.84 367.07 423.88L367.07 423.88L358.68 412.38L406.09 372.06L427.91 372.06L427.91 507.83ZM531.65 508.69L531.65 508.69Q538.21 508.69 543.15 506.81Q548.10 504.93 551.48 501.60Q554.87 498.27 556.59 493.64Q558.31 489.02 558.31 483.65L558.31 483.65Q558.31 470.85 551.22 464.30Q544.12 457.74 531.65 457.74L531.65 457.74Q519.18 457.74 512.09 464.30Q504.99 470.85 504.99 483.65L504.99 483.65Q504.99 489.02 506.71 493.64Q508.43 498.27 511.82 501.60Q515.20 504.93 520.15 506.81Q525.09 508.69 531.65 508.69ZM531.65 390.55L531.65 390.55Q525.74 390.55 521.44 392.38Q517.14 394.21 514.29 397.27Q511.44 400.33 510.10 404.31Q508.75 408.29 508.75 412.70L508.75 412.70Q508.75 417.32 509.88 421.67Q511.01 426.03 513.70 429.41Q516.39 432.80 520.79 434.84Q525.20 436.88 531.65 436.88L531.65 436.88Q538.10 436.88 542.51 434.84Q546.92 432.80 549.60 429.41Q552.29 426.03 553.42 421.67Q554.55 417.32 554.55 412.70L554.55 412.70Q554.55 408.29 553.15 404.31Q551.75 400.33 548.96 397.27Q546.16 394.21 541.86 392.38Q537.56 390.55 531.65 390.55ZM557.88 446.67L557.88 446.67Q572.07 451.29 578.84 460.80Q585.62 470.32 585.62 484.08L585.62 484.08Q585.62 494.40 581.69 502.78Q577.77 511.17 570.67 517.08Q563.58 522.99 553.63 526.22Q543.69 529.44 531.65 529.44L531.65 529.44Q519.61 529.44 509.67 526.22Q499.72 522.99 492.63 517.08Q485.53 511.17 481.61 502.78Q477.69 494.40 477.69 484.08L477.69 484.08Q477.69 470.32 484.46 460.80Q491.23 451.29 505.42 446.67L505.42 446.67Q494.13 441.94 488.49 433.23Q482.85 424.52 482.85 412.27L482.85 412.27Q482.85 403.45 486.45 395.82Q490.05 388.19 496.50 382.54Q502.95 376.90 511.92 373.73Q520.90 370.56 531.65 370.56L531.65 370.56Q542.40 370.56 551.38 373.73Q560.35 376.90 566.80 382.54Q573.25 388.19 576.85 395.82Q580.46 403.45 580.46 412.27L580.46 412.27Q580.46 424.52 574.81 433.23Q569.17 441.94 557.88 446.67ZM713.33 450L713.33 450Q713.33 470.32 708.97 485.31Q704.62 500.31 696.93 510.09Q689.25 519.88 678.76 524.66Q668.28 529.44 656.14 529.44L656.14 529.44Q643.99 529.44 633.61 524.66Q623.24 519.88 615.61 510.09Q607.98 500.31 603.68 485.31Q599.38 470.32 599.38 450L599.38 450Q599.38 429.57 603.68 414.63Q607.98 399.69 615.61 389.91Q623.24 380.13 633.61 375.34Q643.99 370.56 656.14 370.56L656.14 370.56Q668.28 370.56 678.76 375.34Q689.25 380.13 696.93 389.91Q704.62 399.69 708.97 414.63Q713.33 429.57 713.33 450ZM685.91 450L685.91 450Q685.91 433.12 683.44 422.05Q680.97 410.98 676.83 404.42Q672.69 397.86 667.32 395.23Q661.94 392.59 656.14 392.59L656.14 392.59Q650.44 392.59 645.12 395.23Q639.80 397.86 635.71 404.42Q631.63 410.98 629.21 422.05Q626.79 433.12 626.79 450L626.79 450Q626.79 466.88 629.21 477.95Q631.63 489.02 635.71 495.58Q639.80 502.14 645.12 504.77Q650.44 507.40 656.14 507.40L656.14 507.40Q661.94 507.40 667.32 504.77Q672.69 502.14 676.83 495.58Q680.97 489.02 683.44 477.95Q685.91 466.88 685.91 450ZM838.03 450L838.03 450Q838.03 470.32 833.67 485.31Q829.32 500.31 821.63 510.09Q813.95 519.88 803.46 524.66Q792.98 529.44 780.84 529.44L780.84 529.44Q768.69 529.44 758.31 524.66Q747.94 519.88 740.31 510.09Q732.68 500.31 728.38 485.31Q724.08 470.32 724.08 450L724.08 450Q724.08 429.57 728.38 414.63Q732.68 399.69 740.31 389.91Q747.94 380.13 758.31 375.34Q768.69 370.56 780.84 370.56L780.84 370.56Q792.98 370.56 803.46 375.34Q813.95 380.13 821.63 389.91Q829.32 399.69 833.67 414.63Q838.03 429.57 838.03 450ZM810.61 450L810.61 450Q810.61 433.12 808.14 422.05Q805.67 410.98 801.53 404.42Q797.39 397.86 792.02 395.23Q786.64 392.59 780.84 392.59L780.84 392.59Q775.14 392.59 769.82 395.23Q764.50 397.86 760.41 404.42Q756.33 410.98 753.91 422.05Q751.49 433.12 751.49 450L751.49 450Q751.49 466.88 753.91 477.95Q756.33 489.02 760.41 495.58Q764.50 502.14 769.82 504.77Q775.14 507.40 780.84 507.40L780.84 507.40Q786.64 507.40 792.02 504.77Q797.39 502.14 801.53 495.58Q805.67 489.02 808.14 477.95Q810.61 466.88 810.61 450ZM1008.74 492.14L994.65 506.01L958.21 469.56L921.45 506.22L907.36 492.35L944.13 455.48L909.08 420.44L923.06 406.46L958.10 441.51L992.93 406.68L1007.12 420.65L972.19 455.59L1008.74 492.14ZM1108.07 418.93L1108.07 418.93Q1108.07 431.94 1114.78 438.77Q1121.50 445.59 1133.87 445.59L1133.87 445.59Q1140.32 445.59 1145.37 443.55Q1150.42 441.51 1153.86 437.96Q1157.30 434.41 1159.08 429.57Q1160.85 424.74 1160.85 419.15L1160.85 419.15Q1160.85 412.80 1158.91 407.81Q1156.98 402.81 1153.43 399.37Q1149.88 395.93 1144.99 394.10Q1140.10 392.27 1134.30 392.27L1134.30 392.27Q1128.28 392.27 1123.44 394.26Q1118.60 396.25 1115.16 399.80Q1111.72 403.34 1109.89 408.24Q1108.07 413.13 1108.07 418.93ZM1095.06 527.72L1143.33 467.41Q1145.15 465.16 1146.77 463.01Q1148.38 460.86 1149.88 458.71L1149.88 458.71Q1144.51 462.15 1138.06 463.92Q1131.61 465.69 1124.51 465.69L1124.51 465.69Q1116.45 465.69 1108.71 462.90Q1100.97 460.10 1094.95 454.46Q1088.93 448.82 1085.22 440.49Q1081.51 432.15 1081.51 420.97L1081.51 420.97Q1081.51 410.55 1085.38 401.41Q1089.25 392.27 1096.24 385.39Q1103.23 378.51 1113.01 374.53Q1122.79 370.56 1134.62 370.56L1134.62 370.56Q1146.55 370.56 1156.07 374.32Q1165.58 378.08 1172.30 384.85Q1179.02 391.63 1182.62 401.09Q1186.22 410.55 1186.22 421.83L1186.22 421.83Q1186.22 429.04 1184.98 435.49Q1183.75 441.94 1181.49 447.90Q1179.23 453.87 1176.01 459.57Q1172.78 465.26 1168.80 470.85L1168.80 470.85L1133.22 521.59Q1131.39 524.17 1127.74 525.95Q1124.08 527.72 1119.46 527.72L1119.46 527.72L1095.06 527.72ZM1316.62 450L1316.62 450Q1316.62 470.32 1312.26 485.31Q1307.91 500.31 1300.22 510.09Q1292.54 519.88 1282.06 524.66Q1271.57 529.44 1259.43 529.44L1259.43 529.44Q1247.28 529.44 1236.90 524.66Q1226.53 519.88 1218.90 510.09Q1211.27 500.31 1206.97 485.31Q1202.67 470.32 1202.67 450L1202.67 450Q1202.67 429.57 1206.97 414.63Q1211.27 399.69 1218.90 389.91Q1226.53 380.13 1236.90 375.34Q1247.28 370.56 1259.43 370.56L1259.43 370.56Q1271.57 370.56 1282.06 375.34Q1292.54 380.13 1300.22 389.91Q1307.91 399.69 1312.26 414.63Q1316.62 429.57 1316.62 450ZM1289.20 450L1289.20 450Q1289.20 433.12 1286.73 422.05Q1284.26 410.98 1280.12 404.42Q1275.98 397.86 1270.61 395.23Q1265.23 392.59 1259.43 392.59L1259.43 392.59Q1253.73 392.59 1248.41 395.23Q1243.09 397.86 1239.00 404.42Q1234.92 410.98 1232.50 422.05Q1230.08 433.12 1230.08 450L1230.08 450Q1230.08 466.88 1232.50 477.95Q1234.92 489.02 1239.00 495.58Q1243.09 502.14 1248.41 504.77Q1253.73 507.40 1259.43 507.40L1259.43 507.40Q1265.23 507.40 1270.61 504.77Q1275.98 502.14 1280.12 495.58Q1284.26 489.02 1286.73 477.95Q1289.20 466.88 1289.20 450ZM1441.32 450L1441.32 450Q1441.32 470.32 1436.96 485.31Q1432.61 500.31 1424.92 510.09Q1417.24 519.88 1406.76 524.66Q1396.27 529.44 1384.13 529.44L1384.13 529.44Q1371.98 529.44 1361.61 524.66Q1351.23 519.88 1343.60 510.09Q1335.97 500.31 1331.67 485.31Q1327.37 470.32 1327.37 450L1327.37 450Q1327.37 429.57 1331.67 414.63Q1335.97 399.69 1343.60 389.91Q1351.23 380.13 1361.61 375.34Q1371.98 370.56 1384.13 370.56L1384.13 370.56Q1396.27 370.56 1406.76 375.34Q1417.24 380.13 1424.92 389.91Q1432.61 399.69 1436.96 414.63Q1441.32 429.57 1441.32 450ZM1413.90 450L1413.90 450Q1413.90 433.12 1411.43 422.05Q1408.96 410.98 1404.82 404.42Q1400.68 397.86 1395.31 395.23Q1389.93 392.59 1384.13 392.59L1384.13 392.59Q1378.43 392.59 1373.11 395.23Q1367.79 397.86 1363.70 404.42Q1359.62 410.98 1357.20 422.05Q1354.78 433.12 1354.78 450L1354.78 450Q1354.78 466.88 1357.20 477.95Q1359.62 489.02 1363.70 495.58Q1367.79 502.14 1373.11 504.77Q1378.43 507.40 1384.13 507.40L1384.13 507.40Q1389.93 507.40 1395.31 504.77Q1400.68 502.14 1404.82 495.58Q1408.96 489.02 1411.43 477.95Q1413.90 466.88 1413.90 450Z" fill="#999999"/></svg>