<svg version="1.1" xmlns="http://www.w3.org/2000/svg" viewBox="0 0 1180 603.8890734665531" width="2360" height="1207.7781469331062" filter="invert(93%) hue-rotate(180deg)">
  <!-- svg-source:excalidraw -->
  
  <defs>
    <style class="style-fonts">
      @font-face {
        font-family: "Virgil";
        src: url("https://file%2B.vscode-resource.vscode-cdn.net/home/patrick/.vscode/extensions/pomdtr.excalidraw-editor-3.5.1/public//dist/excalidraw-assets/Virgil.woff2");
      }
      @font-face {
        font-family: "Cascadia";
        src: url("https://file%2B.vscode-resource.vscode-cdn.net/home/patrick/.vscode/extensions/pomdtr.excalidraw-editor-3.5.1/public//dist/excalidraw-assets/Cascadia.woff2");
      }
    </style>
  </defs>
  <rect x="0" y="0" width="1180" height="603.8890734665531" fill="#ffffff"></rect><g stroke-linecap="round" transform="translate(970 273.8890734665531) rotate(0 80 20)"><path d="M10 0 M10 0 C58.41 0.84, 104.97 -0.9, 150 0 M10 0 C59.22 1.75, 109.86 1.48, 150 0 M150 0 C155.54 -0.24, 159.03 2.82, 160 10 M150 0 C157.4 1.71, 159.09 5.31, 160 10 M160 10 C161.5 17.39, 161.08 21.57, 160 30 M160 10 C160.98 14.88, 160.08 19.49, 160 30 M160 30 C159.11 38.29, 156.09 39.06, 150 40 M160 30 C160.29 36.16, 157.63 41.97, 150 40 M150 40 C118.27 40.88, 85.06 40.07, 10 40 M150 40 C101.24 39.84, 52.11 39.64, 10 40 M10 40 C3.82 40.12, 1.61 35.68, 0 30 M10 40 C5.61 38.74, -0.58 37.86, 0 30 M0 30 C1.71 21.08, -1.19 16.53, 0 10 M0 30 C0.88 25.7, -0.25 20.5, 0 10 M0 10 C0.09 3.99, 1.83 -1.43, 10 0 M0 10 C0.96 2.41, 4.05 0.64, 10 0" stroke="#1e1e1e" stroke-width="2" fill="none"></path></g><g transform="translate(1024.663948059082 283.8890734665531) rotate(0 25.33605194091797 10)"><text x="25.33605194091797" y="0" font-family="Virgil, Segoe UI Emoji" font-size="16px" fill="#1e1e1e" text-anchor="middle" style="white-space: pre;" direction="ltr" dominant-baseline="text-before-edge">ICONS</text></g><g stroke-linecap="round" transform="translate(710 273.8890734665531) rotate(0 80 20)"><path d="M10 0 M10 0 C59.47 -1.21, 113.69 -2.98, 150 0 M10 0 C44.96 -0.66, 77.7 -1.47, 150 0 M150 0 C155.7 -0.51, 160.64 4.82, 160 10 M150 0 C155.75 1.98, 159.61 5.35, 160 10 M160 10 C161.04 15.05, 158.4 20.97, 160 30 M160 10 C160.11 15.98, 159.72 20.86, 160 30 M160 30 C159.42 35.72, 156.92 39.56, 150 40 M160 30 C160.97 38.63, 155.11 42.17, 150 40 M150 40 C95.42 38.52, 41.57 37.92, 10 40 M150 40 C104.12 38.32, 57.16 39.2, 10 40 M10 40 C4.94 39.02, 1.98 35.57, 0 30 M10 40 C2.76 41.19, 1.26 35.13, 0 30 M0 30 C-1.48 23.52, -1.64 15.95, 0 10 M0 30 C-0.4 23.62, -0.14 18.51, 0 10 M0 10 C-1.51 1.9, 4.17 -0.8, 10 0 M0 10 C0.71 3.97, 4.7 0.93, 10 0" stroke="#1e1e1e" stroke-width="2" fill="none"></path></g><g transform="translate(758.4879302978516 283.8890734665531) rotate(0 31.512069702148438 10)"><text x="31.512069702148438" y="0" font-family="Virgil, Segoe UI Emoji" font-size="16px" fill="#1e1e1e" text-anchor="middle" style="white-space: pre;" direction="ltr" dominant-baseline="text-before-edge">HUMANS</text></g><g stroke-linecap="round" transform="translate(50 513.8890734665531) rotate(0 80 20)"><path d="M10 0 M10 0 C65.48 -1.76, 117.69 -0.61, 150 0 M10 0 C64.92 -1.09, 120.48 -1.22, 150 0 M150 0 C157.3 1.49, 159.2 5.05, 160 10 M150 0 C156.28 2.01, 158.63 4.86, 160 10 M160 10 C158.36 19.08, 159.12 27.13, 160 30 M160 10 C159.54 18.04, 159.7 23.99, 160 30 M160 30 C160.25 36.23, 157.51 41.71, 150 40 M160 30 C158.45 38.83, 158.76 40.94, 150 40 M150 40 C111.82 37.36, 72.21 40.18, 10 40 M150 40 C116.84 38.91, 84 38.36, 10 40 M10 40 C5.32 38.9, -0.5 37.7, 0 30 M10 40 C4.6 38.47, 1.39 38.48, 0 30 M0 30 C-1.35 26.18, 0.04 23.48, 0 10 M0 30 C0.09 23.89, -0.71 16.4, 0 10 M0 10 C0.84 2.53, 3.95 0.55, 10 0 M0 10 C1.37 4.26, 3.57 1, 10 0" stroke="#1e1e1e" stroke-width="2" fill="none"></path></g><g transform="translate(75.60787200927734 523.8890734665531) rotate(0 54.392127990722656 10)"><text x="54.392127990722656" y="0" font-family="Virgil, Segoe UI Emoji" font-size="16px" fill="#1e1e1e" text-anchor="middle" style="white-space: pre;" direction="ltr" dominant-baseline="text-before-edge">SHORTCODES</text></g><g stroke-linecap="round" transform="translate(510 273.8890734665531) rotate(0 80 20)"><path d="M10 0 M10 0 C51.1 0.63, 96.38 2.88, 150 0 M10 0 C61.19 -0.09, 113.67 0.91, 150 0 M150 0 C155.87 1.72, 159.66 5.08, 160 10 M150 0 C155.3 1.52, 161.98 4.38, 160 10 M160 10 C158.85 17.93, 161.06 22.37, 160 30 M160 10 C159.62 17.43, 160.04 25.59, 160 30 M160 30 C160.84 38.38, 155.32 41.88, 150 40 M160 30 C162.09 37.6, 156.21 40.18, 150 40 M150 40 C117.04 39.76, 81.55 40.06, 10 40 M150 40 C120.26 39.59, 89.89 39.53, 10 40 M10 40 C2.83 41.04, 1.1 35.33, 0 30 M10 40 C4.72 41.82, -2.09 35.14, 0 30 M0 30 C0.06 25.11, 0.59 16.12, 0 10 M0 30 C-0.76 24.22, 0.41 19.46, 0 10 M0 10 C0.62 3.89, 4.52 0.81, 10 0 M0 10 C0.24 4.33, 3.39 1.09, 10 0" stroke="#1e1e1e" stroke-width="2" fill="none"></path></g><g transform="translate(573.9359588623047 283.8890734665531) rotate(0 16.064041137695312 10)"><text x="16.064041137695312" y="0" font-family="Virgil, Segoe UI Emoji" font-size="16px" fill="#1e1e1e" text-anchor="middle" style="white-space: pre;" direction="ltr" dominant-baseline="text-before-edge">SEO</text></g><g stroke-linecap="round" transform="translate(50 453.8890734665531) rotate(0 80 20)"><path d="M10 0 M10 0 C41.76 2.07, 71.05 -0.71, 150 0 M10 0 C50.62 1.1, 90.21 1.22, 150 0 M150 0 C156.33 1.75, 158.81 4.66, 160 10 M150 0 C158.65 1.04, 160.28 1.34, 160 10 M160 10 C161.13 17.24, 161.81 23.82, 160 30 M160 10 C160.07 17.4, 160.36 26.1, 160 30 M160 30 C158.65 38.55, 158.49 40.81, 150 40 M160 30 C159.54 36.84, 155.29 41.19, 150 40 M150 40 C119.35 42.03, 89.52 41.19, 10 40 M150 40 C108.17 38.76, 64.11 39.83, 10 40 M10 40 C4.43 38.67, 1.21 38.25, 0 30 M10 40 C1.24 38.48, 0.84 34.96, 0 30 M0 30 C0.45 23.21, -0.92 17.37, 0 10 M0 30 C0.57 22.94, 0.46 16.96, 0 10 M0 10 C1.19 4.14, 3.54 0.87, 10 0 M0 10 C0.06 4.42, 3.67 -1.04, 10 0" stroke="#1e1e1e" stroke-width="2" fill="none"></path></g><g transform="translate(88.5359115600586 463.8890734665531) rotate(0 41.464088439941406 10)"><text x="41.464088439941406" y="0" font-family="Virgil, Segoe UI Emoji" font-size="16px" fill="#1e1e1e" text-anchor="middle" style="white-space: pre;" direction="ltr" dominant-baseline="text-before-edge">SECURITY</text></g><g stroke-linecap="round" transform="translate(50 153.88907346655313) rotate(0 80 20)"><path d="M10 0 M10 0 C49.25 -2.29, 85.49 -2.13, 150 0 M10 0 C48.01 -0.18, 86.65 -0.17, 150 0 M150 0 C155.47 1.32, 161.72 4.24, 160 10 M150 0 C156.94 -1.99, 161.56 2.21, 160 10 M160 10 C162.03 16.79, 161.75 24.79, 160 30 M160 10 C160.45 15.91, 159.35 21.06, 160 30 M160 30 C161.82 37.48, 156.27 40.15, 150 40 M160 30 C158.62 37.86, 154.6 40.75, 150 40 M150 40 C99.23 41.41, 51.86 42.53, 10 40 M150 40 C114.64 39.75, 80.33 38.56, 10 40 M10 40 C4.54 41.58, -1.82 35.34, 0 30 M10 40 C4.17 38.3, 0.42 36.56, 0 30 M0 30 C-0.98 22.26, 0.62 12.82, 0 10 M0 30 C0.23 25.71, 0.51 21.26, 0 10 M0 10 C0.21 4.2, 3.39 0.95, 10 0 M0 10 C0.34 2.3, 3.46 -0.22, 10 0" stroke="#1e1e1e" stroke-width="2" fill="none"></path></g><g transform="translate(98.73593139648438 163.88907346655313) rotate(0 31.264068603515625 10)"><text x="31.264068603515625" y="0" font-family="Virgil, Segoe UI Emoji" font-size="16px" fill="#1e1e1e" text-anchor="middle" style="white-space: pre;" direction="ltr" dominant-baseline="text-before-edge">GISCUS</text></g><g stroke-linecap="round" transform="translate(50 333.8890734665531) rotate(0 80 20)"><path d="M10 0 M10 0 C63.39 -0.19, 116.75 1.42, 150 0 M10 0 C62.24 -0.33, 114.22 -0.54, 150 0 M150 0 C158.39 0.91, 160.24 1.6, 160 10 M150 0 C158.23 -1.12, 161.94 4.75, 160 10 M160 10 C161.81 15.31, 159.25 22.03, 160 30 M160 10 C159.41 16.5, 160.99 21.53, 160 30 M160 30 C159.6 36.82, 155.47 41.04, 150 40 M160 30 C157.93 37.41, 157.84 38.59, 150 40 M150 40 C98.87 41.95, 46.52 42.32, 10 40 M150 40 C116.24 40.06, 81.99 41.52, 10 40 M10 40 C1.51 38.68, 0.73 35.19, 0 30 M10 40 C3.75 39.9, 2.11 37.18, 0 30 M0 30 C0.75 22.93, -1.34 19.7, 0 10 M0 30 C0.53 25.2, 0.04 20.04, 0 10 M0 10 C0.05 4.28, 3.63 -0.9, 10 0 M0 10 C0.12 3.11, 1.85 0.61, 10 0" stroke="#1e1e1e" stroke-width="2" fill="none"></path></g><g transform="translate(83.94390106201172 343.8890734665531) rotate(0 46.05609893798828 10)"><text x="46.05609893798828" y="0" font-family="Virgil, Segoe UI Emoji" font-size="16px" fill="#1e1e1e" text-anchor="middle" style="white-space: pre;" direction="ltr" dominant-baseline="text-before-edge">PUBLISHER</text></g><g stroke-linecap="round" transform="translate(970 153.88907346655313) rotate(0 80 20)"><path d="M10 0 M10 0 C43.63 1.32, 79.78 -0.12, 150 0 M10 0 C63.44 -0.56, 118.93 -0.77, 150 0 M150 0 C156.91 -1.73, 161.36 2.36, 160 10 M150 0 C158.61 1.42, 159.87 5.53, 160 10 M160 10 C159.22 15.36, 159.72 21.06, 160 30 M160 10 C160.77 18.12, 159.67 25.5, 160 30 M160 30 C158.8 37.71, 154.87 40.65, 150 40 M160 30 C161.17 35.25, 158.19 38.12, 150 40 M150 40 C103.64 43.11, 58.16 40.63, 10 40 M150 40 C101.35 39.86, 50.57 38.4, 10 40 M10 40 C4.06 38.52, 0.36 36.58, 0 30 M10 40 C5.45 40.51, -0.5 35.6, 0 30 M0 30 C-1.5 24.74, -0.87 18.43, 0 10 M0 30 C-0.02 23.88, -0.09 17.37, 0 10 M0 10 C0.29 2.43, 3.44 -0.19, 10 0 M0 10 C-1.48 3.95, 5.42 0.33, 10 0" stroke="#1e1e1e" stroke-width="2" fill="none"></path></g><g transform="translate(1002.7759017944336 163.88907346655313) rotate(0 47.224098205566406 10)"><text x="47.224098205566406" y="0" font-family="Virgil, Segoe UI Emoji" font-size="16px" fill="#1e1e1e" text-anchor="middle" style="white-space: pre;" direction="ltr" dominant-baseline="text-before-edge">FUNCTIONS</text></g><g stroke-linecap="round" transform="translate(310 213.88907346655313) rotate(0 80 20)"><path d="M10 0 M10 0 C46.69 -1.24, 82.13 -0.78, 150 0 M10 0 C65.12 -0.47, 118.64 -1.79, 150 0 M150 0 C158.02 -0.97, 161.69 4.56, 160 10 M150 0 C156.54 2.19, 158.97 5.2, 160 10 M160 10 C159.46 16.26, 161.62 19.49, 160 30 M160 10 C159.98 17.96, 159.58 26.29, 160 30 M160 30 C158.2 37.32, 157.69 38.77, 150 40 M160 30 C161.52 34.79, 157.22 40.13, 150 40 M150 40 C95.64 40.89, 44.52 42.49, 10 40 M150 40 C116.42 40.44, 85.03 40.37, 10 40 M10 40 C3.7 39.91, 1.84 37.11, 0 30 M10 40 C2.84 38.93, 0.11 37.43, 0 30 M0 30 C-0.66 26.12, 0.7 22.2, 0 10 M0 30 C0.01 23.67, 0.13 15.94, 0 10 M0 10 C0.11 3.14, 2.04 0.53, 10 0 M0 10 C2.09 3.66, 1.1 -2.09, 10 0" stroke="#1e1e1e" stroke-width="2" fill="none"></path></g><g transform="translate(368.71195220947266 223.88907346655313) rotate(0 21.288047790527344 10)"><text x="21.288047790527344" y="0" font-family="Virgil, Segoe UI Emoji" font-size="16px" fill="#1e1e1e" text-anchor="middle" style="white-space: pre;" direction="ltr" dominant-baseline="text-before-edge">HEAD</text></g><g stroke-linecap="round" transform="translate(50 393.8890734665531) rotate(0 80 20)"><path d="M10 0 M10 0 C58.17 0.22, 104.66 -0.64, 150 0 M10 0 C61.38 -1.5, 113.21 -1.12, 150 0 M150 0 C158.35 1.23, 159.89 5.24, 160 10 M150 0 C155.64 1.87, 159.33 2.25, 160 10 M160 10 C161.67 14.9, 161.84 24.33, 160 30 M160 10 C159.36 17.33, 159.06 23.95, 160 30 M160 30 C161.02 35.44, 157.99 38.36, 150 40 M160 30 C160.55 36.8, 158.52 38.87, 150 40 M150 40 C95.15 40.75, 36.9 40.86, 10 40 M150 40 C97.3 38.33, 44.05 39.03, 10 40 M10 40 C5.17 40.44, -0.43 35.74, 0 30 M10 40 C3.44 40.76, -1.73 35.02, 0 30 M0 30 C0.63 24.35, 0.89 16.53, 0 10 M0 30 C0.14 22.68, 0.05 16.16, 0 10 M0 10 C-1.29 3.87, 5.15 0.29, 10 0 M0 10 C-2.23 1.24, 4.98 -2.29, 10 0" stroke="#1e1e1e" stroke-width="2" fill="none"></path></g><g transform="translate(71.18386840820312 403.8890734665531) rotate(0 58.816131591796875 10)"><text x="58.816131591796875" y="0" font-family="Virgil, Segoe UI Emoji" font-size="16px" fill="#1e1e1e" text-anchor="middle" style="white-space: pre;" direction="ltr" dominant-baseline="text-before-edge">RENDERHOOKS</text></g><g stroke-linecap="round" transform="translate(50 213.88907346655313) rotate(0 80 20)"><path d="M10 0 M10 0 C48.18 -0.96, 84.18 1.96, 150 0 M10 0 C59.02 0.73, 107.53 1.83, 150 0 M150 0 C156.55 1.91, 159.11 4.96, 160 10 M150 0 C156 -1.08, 160.29 2.83, 160 10 M160 10 C162.05 18.66, 160.99 23.29, 160 30 M160 10 C158.98 16.48, 160.39 21.69, 160 30 M160 30 C161.32 35.03, 157.15 40.12, 150 40 M160 30 C161.85 35.53, 158.95 38.74, 150 40 M150 40 C110.17 41.97, 74.59 38.95, 10 40 M150 40 C117.45 38.92, 85.45 39.19, 10 40 M10 40 C2.9 39.07, 0.09 37.33, 0 30 M10 40 C1.6 38.36, 0.96 35.75, 0 30 M0 30 C0.75 23.59, 0.82 16.81, 0 10 M0 30 C0.02 22.96, -0.67 16.37, 0 10 M0 10 C1.82 3.62, 1.39 -1.82, 10 0 M0 10 C1.65 1.04, 3.02 -1.4, 10 0" stroke="#1e1e1e" stroke-width="2" fill="none"></path></g><g transform="translate(62.76786804199219 223.88907346655313) rotate(0 67.23213195800781 10)"><text x="67.23213195800781" y="0" font-family="Virgil, Segoe UI Emoji" font-size="16px" fill="#1e1e1e" text-anchor="middle" style="white-space: pre;" direction="ltr" dominant-baseline="text-before-edge">NETLIFICATION</text></g><g stroke-linecap="round" transform="translate(510 153.88907346655313) rotate(0 80 20)"><path d="M10 0 M10 0 C50.97 2.56, 90.21 1.07, 150 0 M10 0 C40.71 1.3, 69.67 1.63, 150 0 M150 0 C155.77 1.62, 159.42 2.39, 160 10 M150 0 C156.96 -0.51, 160.97 5.3, 160 10 M160 10 C161 14.25, 160.34 18.1, 160 30 M160 10 C160.33 16.42, 160.48 23.26, 160 30 M160 30 C160.48 36.78, 158.28 39.02, 150 40 M160 30 C162.28 35.4, 156.09 41.19, 150 40 M150 40 C101.9 39.02, 49.31 41.57, 10 40 M150 40 C119.28 40.16, 86.51 39.47, 10 40 M10 40 C3.43 40.66, -1.51 35.24, 0 30 M10 40 C4.3 39.08, 0.71 37.3, 0 30 M0 30 C0.79 22.86, 0.87 15.91, 0 10 M0 30 C-0.66 25.17, 0.9 19.94, 0 10 M0 10 C-1.94 1.52, 4.76 -1.99, 10 0 M0 10 C-0.32 1.93, 4.45 -0.79, 10 0" stroke="#1e1e1e" stroke-width="2" fill="none"></path></g><g transform="translate(537.8718872070312 163.88907346655313) rotate(0 52.12811279296875 10)"><text x="52.12811279296875" y="0" font-family="Virgil, Segoe UI Emoji" font-size="16px" fill="#1e1e1e" text-anchor="middle" style="white-space: pre;" direction="ltr" dominant-baseline="text-before-edge">OPENSEARCH</text></g><g stroke-linecap="round" transform="translate(970 213.88907346655313) rotate(0 80 20)"><path d="M10 0 M10 0 C44.56 -0.97, 75.57 0.15, 150 0 M10 0 C45.13 0.09, 79.93 -0.05, 150 0 M150 0 C156.09 -0.94, 160.25 2.89, 160 10 M150 0 C157.63 1.97, 158.45 5.5, 160 10 M160 10 C160.24 16.62, 161.12 23.84, 160 30 M160 10 C160.76 15.83, 160.34 23.36, 160 30 M160 30 C161.61 35.68, 158.65 38.9, 150 40 M160 30 C159.42 37.86, 157.93 38.47, 150 40 M150 40 C98.23 39.45, 47.63 39.09, 10 40 M150 40 C108.41 39.84, 67.3 40.64, 10 40 M10 40 C1.83 38.57, 0.84 35.87, 0 30 M10 40 C4.05 40.64, 1.37 37.59, 0 30 M0 30 C0.86 24.09, -0.99 17.7, 0 10 M0 30 C1.04 24.34, -0.84 17.48, 0 10 M0 10 C1.43 1.34, 3.06 -1.22, 10 0 M0 10 C1.12 2.54, 5.49 0.89, 10 0" stroke="#1e1e1e" stroke-width="2" fill="none"></path></g><g transform="translate(1024.2079391479492 223.88907346655313) rotate(0 25.79206085205078 10)"><text x="25.79206085205078" y="0" font-family="Virgil, Segoe UI Emoji" font-size="16px" fill="#1e1e1e" text-anchor="middle" style="white-space: pre;" direction="ltr" dominant-baseline="text-before-edge">HOOKS</text></g><g stroke-linecap="round" transform="translate(970 93.88907346655313) rotate(0 80 20)"><path d="M10 0 M10 0 C62.33 1.19, 117.16 1.52, 150 0 M10 0 C60.17 -0.52, 110.95 -1.81, 150 0 M150 0 C156.92 -0.44, 160.84 5.04, 160 10 M150 0 C155.11 2.17, 162.09 4.27, 160 10 M160 10 C161.05 13.81, 160.66 22.22, 160 30 M160 10 C160.37 14.83, 160.94 19.05, 160 30 M160 30 C161.98 35.57, 156.17 41.04, 150 40 M160 30 C161.26 35.13, 158.05 41.82, 150 40 M150 40 C119.27 40.87, 91.41 42.35, 10 40 M150 40 C104.95 39.68, 59.04 38.63, 10 40 M10 40 C4.17 39.2, 0.62 37.22, 0 30 M10 40 C4.7 40.93, 0.24 37.67, 0 30 M0 30 C-1 24.05, -0.29 16.61, 0 10 M0 30 C-1.15 22.56, 0.53 15.94, 0 10 M0 10 C-0.27 2.11, 4.31 -0.69, 10 0 M0 10 C2.16 4.22, 1.33 -0.86, 10 0" stroke="#1e1e1e" stroke-width="2" fill="none"></path></g><g transform="translate(1020.5279388427734 103.88907346655313) rotate(0 29.472061157226562 10)"><text x="29.472061157226562" y="0" font-family="Virgil, Segoe UI Emoji" font-size="16px" fill="#1e1e1e" text-anchor="middle" style="white-space: pre;" direction="ltr" dominant-baseline="text-before-edge">DEBUG</text></g><g stroke-linecap="round" transform="translate(510 213.88907346655313) rotate(0 80 20)"><path d="M10 0 M10 0 C52.71 0.74, 98.59 -1.06, 150 0 M10 0 C65.05 -1.61, 120.81 -1.36, 150 0 M150 0 C157.51 1.71, 158.65 5.22, 160 10 M150 0 C158.76 0.94, 159.54 3.51, 160 10 M160 10 C160.75 15.82, 158.88 20.92, 160 30 M160 10 C160.85 13.87, 161.04 18.18, 160 30 M160 30 C159.5 37.7, 157.76 38.67, 150 40 M160 30 C161.39 38.48, 154.57 38.48, 150 40 M150 40 C102.82 42.09, 56.27 39.82, 10 40 M150 40 C113.76 39.75, 79.45 40.06, 10 40 M10 40 C3.95 40.55, 1.19 37.47, 0 30 M10 40 C3.57 41, 0.06 37.76, 0 30 M0 30 C-0.1 22.42, 0.62 19.23, 0 10 M0 30 C0.91 22.72, 0.06 16.82, 0 10 M0 10 C0.97 2.64, 5.21 0.77, 10 0 M0 10 C-2.01 2.48, 5.02 0.38, 10 0" stroke="#1e1e1e" stroke-width="2" fill="none"></path></g><g transform="translate(558.8079299926758 223.88907346655313) rotate(0 31.19207000732422 10)"><text x="31.19207000732422" y="0" font-family="Virgil, Segoe UI Emoji" font-size="16px" fill="#1e1e1e" text-anchor="middle" style="white-space: pre;" direction="ltr" dominant-baseline="text-before-edge">SCHEMA</text></g><g stroke-linecap="round" transform="translate(50 273.8890734665531) rotate(0 80 20)"><path d="M10 0 M10 0 C62.73 -1.29, 114.9 -2.07, 150 0 M10 0 C63.48 0.44, 117.13 1.52, 150 0 M150 0 C155.32 1.88, 161.82 4.15, 160 10 M150 0 C156.21 0.18, 158.62 4.53, 160 10 M160 10 C158.84 15.52, 158.43 18.89, 160 30 M160 10 C161.15 15.57, 159.91 22.75, 160 30 M160 30 C161.1 35.33, 157.87 41.58, 150 40 M160 30 C157.91 35.14, 157.5 38.3, 150 40 M150 40 C105.9 40.85, 59.98 41.38, 10 40 M150 40 C103.8 38.6, 57.06 39.28, 10 40 M10 40 C4.52 40.81, 0.21 37.54, 0 30 M10 40 C3.39 41.09, 0.34 35.63, 0 30 M0 30 C0.55 25.71, 0.3 15.85, 0 10 M0 30 C-0.28 25.21, 0.34 21.29, 0 10 M0 10 C1.88 4.11, 1.59 -0.74, 10 0 M0 10 C1.68 3.72, 4.32 -0.44, 10 0" stroke="#1e1e1e" stroke-width="2" fill="none"></path></g><g transform="translate(87.37590789794922 283.8890734665531) rotate(0 42.62409210205078 10)"><text x="42.62409210205078" y="0" font-family="Virgil, Segoe UI Emoji" font-size="16px" fill="#1e1e1e" text-anchor="middle" style="white-space: pre;" direction="ltr" dominant-baseline="text-before-edge">PICTURES</text></g><g stroke-linecap="round" transform="translate(310 393.8890734665531) rotate(0 80 20)"><path d="M10 0 M10 0 C65.7 -0.81, 119.22 -0.5, 150 0 M10 0 C45.82 1.16, 80.12 1.25, 150 0 M150 0 C158.49 0.81, 159.6 3.49, 160 10 M150 0 C155.29 1.19, 157.93 4.08, 160 10 M160 10 C158.24 17.5, 159.99 25.65, 160 30 M160 10 C159.95 15.53, 160.75 19.36, 160 30 M160 30 C161.21 38.25, 154.85 38.68, 150 40 M160 30 C160.84 34.96, 157.08 39.9, 150 40 M150 40 C94.21 39.79, 40.95 38.19, 10 40 M150 40 C118.31 39.72, 86.6 39.84, 10 40 M10 40 C3.54 40.87, 0.05 37.61, 0 30 M10 40 C3.67 38.96, 0.12 36.44, 0 30 M0 30 C0.23 23.35, -1.87 22.01, 0 10 M0 30 C0.51 25.65, 0.97 22.37, 0 10 M0 10 C-1.75 2.59, 4.8 0.33, 10 0 M0 10 C0.99 2.9, 3.58 1.55, 10 0" stroke="#1e1e1e" stroke-width="2" fill="none"></path></g><g transform="translate(373.4959716796875 403.8890734665531) rotate(0 16.5040283203125 10)"><text x="16.5040283203125" y="0" font-family="Virgil, Segoe UI Emoji" font-size="16px" fill="#1e1e1e" text-anchor="middle" style="white-space: pre;" direction="ltr" dominant-baseline="text-before-edge">PWA</text></g><g stroke-linecap="round" transform="translate(510 93.88907346655313) rotate(0 80 20)"><path d="M10 0 M10 0 C52.83 0.04, 91.48 0.88, 150 0 M10 0 C48.24 -0.25, 88.74 -0.79, 150 0 M150 0 C156.27 0.15, 158.8 4.37, 160 10 M150 0 C154.6 0.75, 161.17 1.92, 160 10 M160 10 C159.95 18.93, 158.85 26.63, 160 30 M160 10 C160.5 14.23, 160.55 20.59, 160 30 M160 30 C158.18 35.34, 157.39 38.52, 150 40 M160 30 C160.42 36.56, 158.78 40.51, 150 40 M150 40 C111.68 38.56, 70.6 40.9, 10 40 M150 40 C114.2 40.79, 77.31 40.82, 10 40 M10 40 C3.39 40.95, 0.29 35.77, 0 30 M10 40 C3.46 39.78, -1.48 37.28, 0 30 M0 30 C-1.85 23.61, -2.02 14.09, 0 10 M0 30 C0.84 25.61, -0.97 20.07, 0 10 M0 10 C1.47 3.67, 4.19 -0.38, 10 0 M0 10 C0.25 4.88, 3.52 -1.26, 10 0" stroke="#1e1e1e" stroke-width="2" fill="none"></path></g><g transform="translate(563.5199356079102 103.88907346655313) rotate(0 26.480064392089844 10)"><text x="26.480064392089844" y="0" font-family="Virgil, Segoe UI Emoji" font-size="16px" fill="#1e1e1e" text-anchor="middle" style="white-space: pre;" direction="ltr" dominant-baseline="text-before-edge">FEEDS</text></g><g stroke-linecap="round" transform="translate(50 93.88907346655313) rotate(0 80 20)"><path d="M10 0 M10 0 C44.82 0.66, 81.08 1.25, 150 0 M10 0 C64.88 -0.91, 117.74 -1.24, 150 0 M150 0 C155.47 1.04, 158.2 3.98, 160 10 M150 0 C157.84 -1.41, 161.52 1.45, 160 10 M160 10 C159.03 18.47, 158.91 22.46, 160 30 M160 10 C160.71 17.83, 159.2 23.41, 160 30 M160 30 C160.73 35.19, 157.03 39.91, 150 40 M160 30 C162.11 37.18, 156.17 38.93, 150 40 M150 40 C105.91 39.78, 63.88 39.57, 10 40 M150 40 C104.23 41, 58.29 41.04, 10 40 M10 40 C3.63 39.1, 0.11 36.47, 0 30 M10 40 C1.85 40.61, 2.09 37, 0 30 M0 30 C-1.81 25.67, -1.04 22.86, 0 10 M0 30 C-1.06 24.32, 0.54 19.54, 0 10 M0 10 C0.86 2.95, 3.55 1.35, 10 0 M0 10 C0.19 2.07, 1.77 1.63, 10 0" stroke="#1e1e1e" stroke-width="2" fill="none"></path></g><g transform="translate(90.77591705322266 103.88907346655313) rotate(0 39.224082946777344 10)"><text x="39.224082946777344" y="0" font-family="Virgil, Segoe UI Emoji" font-size="16px" fill="#1e1e1e" text-anchor="middle" style="white-space: pre;" direction="ltr" dominant-baseline="text-before-edge">AUDITOR</text></g><g stroke-linecap="round" transform="translate(710 213.88907346655313) rotate(0 80 20)"><path d="M10 0 M10 0 C47.5 0.66, 87.59 -1.53, 150 0 M10 0 C64.99 -0.49, 119.77 -0.05, 150 0 M150 0 C154.87 0.65, 161.02 2.1, 160 10 M150 0 C158.19 -1.88, 160.55 3.47, 160 10 M160 10 C158.8 17.11, 160.94 26.31, 160 30 M160 10 C159.21 14, 160.48 18.59, 160 30 M160 30 C160.36 36.58, 158.5 40.44, 150 40 M160 30 C159.5 35.6, 156.77 40.76, 150 40 M150 40 C117.74 41.21, 87.63 41.78, 10 40 M150 40 C102.38 41.08, 54.85 40.16, 10 40 M10 40 C3.44 39.81, -1.29 37.2, 0 30 M10 40 C5.42 40.33, -2.23 34.58, 0 30 M0 30 C-1.02 23.54, -0.49 17.02, 0 10 M0 30 C0.91 23.39, 0.61 16.26, 0 10 M0 10 C0.22 4.68, 3.5 -1.1, 10 0 M0 10 C-1.56 4.96, 4.85 -1.94, 10 0" stroke="#1e1e1e" stroke-width="2" fill="none"></path></g><g transform="translate(755.8479232788086 223.88907346655313) rotate(0 34.152076721191406 10)"><text x="34.152076721191406" y="0" font-family="Virgil, Segoe UI Emoji" font-size="16px" fill="#1e1e1e" text-anchor="middle" style="white-space: pre;" direction="ltr" dominant-baseline="text-before-edge">ROBOTS</text></g><g stroke-linecap="round" transform="translate(510 333.8890734665531) rotate(0 80 20)"><path d="M10 0 M10 0 C65.48 -1.76, 117.69 -0.61, 150 0 M10 0 C64.92 -1.09, 120.48 -1.22, 150 0 M150 0 C157.3 1.49, 159.2 5.05, 160 10 M150 0 C156.28 2.01, 158.63 4.86, 160 10 M160 10 C158.36 19.08, 159.12 27.13, 160 30 M160 10 C159.54 18.04, 159.7 23.99, 160 30 M160 30 C160.25 36.23, 157.51 41.71, 150 40 M160 30 C158.45 38.83, 158.76 40.94, 150 40 M150 40 C111.82 37.36, 72.21 40.18, 10 40 M150 40 C116.84 38.91, 84 38.36, 10 40 M10 40 C5.32 38.9, -0.5 37.7, 0 30 M10 40 C4.6 38.47, 1.39 38.48, 0 30 M0 30 C-1.35 26.18, 0.04 23.48, 0 10 M0 30 C0.09 23.89, -0.71 16.4, 0 10 M0 10 C0.84 2.53, 3.95 0.55, 10 0 M0 10 C1.37 4.26, 3.57 1, 10 0" stroke="#1e1e1e" stroke-width="2" fill="none"></path></g><g transform="translate(559.7759399414062 343.8890734665531) rotate(0 30.22406005859375 10)"><text x="30.22406005859375" y="0" font-family="Virgil, Segoe UI Emoji" font-size="16px" fill="#1e1e1e" text-anchor="middle" style="white-space: pre;" direction="ltr" dominant-baseline="text-before-edge">SOCIAL</text></g><g stroke-linecap="round" transform="translate(710 333.8890734665531) rotate(0 80 20)"><path d="M10 0 M10 0 C65.48 -1.76, 117.69 -0.61, 150 0 M10 0 C64.92 -1.09, 120.48 -1.22, 150 0 M150 0 C157.3 1.49, 159.2 5.05, 160 10 M150 0 C156.28 2.01, 158.63 4.86, 160 10 M160 10 C158.36 19.08, 159.12 27.13, 160 30 M160 10 C159.54 18.04, 159.7 23.99, 160 30 M160 30 C160.25 36.23, 157.51 41.71, 150 40 M160 30 C158.45 38.83, 158.76 40.94, 150 40 M150 40 C111.82 37.36, 72.21 40.18, 10 40 M150 40 C116.84 38.91, 84 38.36, 10 40 M10 40 C5.32 38.9, -0.5 37.7, 0 30 M10 40 C4.6 38.47, 1.39 38.48, 0 30 M0 30 C-1.35 26.18, 0.04 23.48, 0 10 M0 30 C0.09 23.89, -0.71 16.4, 0 10 M0 10 C0.84 2.53, 3.95 0.55, 10 0 M0 10 C1.37 4.26, 3.57 1, 10 0" stroke="#1e1e1e" stroke-width="2" fill="none"></path></g><g transform="translate(752.2879180908203 343.8890734665531) rotate(0 37.71208190917969 10)"><text x="37.71208190917969" y="0" font-family="Virgil, Segoe UI Emoji" font-size="16px" fill="#1e1e1e" text-anchor="middle" style="white-space: pre;" direction="ltr" dominant-baseline="text-before-edge">SITEMAP</text></g><g stroke-linecap="round" transform="translate(10 53.88907346655313) rotate(0 120 270)"><path d="M32 0 M32 0 C101.73 -1.81, 170.44 -0.06, 208 0 M32 0 C98.04 0.01, 162.75 -0.31, 208 0 M208 0 C229.82 0.97, 239.43 9.47, 240 32 M208 0 C227.17 1.64, 240 9.22, 240 32 M240 32 C239.32 178.72, 240.74 327.27, 240 508 M240 32 C239.32 184.31, 239.35 336.3, 240 508 M240 508 C240.72 528.23, 229.82 541.87, 208 540 M240 508 C237.76 529.41, 230.86 541.47, 208 540 M208 540 C166.64 540.02, 124.31 541.53, 32 540 M208 540 C158.61 540.62, 109.45 540.94, 32 540 M32 540 C11.61 538.12, 0.19 528.21, 0 508 M32 540 C9.74 537.9, 1.46 531.33, 0 508 M0 508 C-0.3 341.13, -1.74 172.88, 0 32 M0 508 C-1.71 385.3, -1.52 261.77, 0 32 M0 32 C1.93 10.7, 12.53 -1.75, 32 0 M0 32 C1.97 12.84, 12.01 0.76, 32 0" stroke="#000000" stroke-width="1" fill="none"></path></g><g stroke-linecap="round" transform="translate(270 53.88907346655313) rotate(0 320 270)"><path d="M32 0 M32 0 C259.08 0.43, 484.58 0.25, 608 0 M32 0 C190.93 -0.12, 350.07 -0.76, 608 0 M608 0 C629.62 0.27, 640.74 11.65, 640 32 M608 0 C630.93 1.08, 637.84 10.89, 640 32 M640 32 C639.71 148.75, 639.61 264.4, 640 508 M640 32 C641.42 147.4, 641.58 263.38, 640 508 M640 508 C639.96 528.42, 630.66 539.93, 608 540 M640 508 C638.75 531.56, 629.38 542.14, 608 540 M608 540 C486.17 542.44, 363.4 541.45, 32 540 M608 540 C477.31 540, 347.05 540.35, 32 540 M32 540 C9.64 540.15, -0.83 529.4, 0 508 M32 540 C10.28 541.97, 1.47 531.07, 0 508 M0 508 C0.04 382.89, -0.18 258.85, 0 32 M0 508 C0.61 325.48, 1.11 143.69, 0 32 M0 32 C-1.97 9.34, 9.74 1.4, 32 0 M0 32 C1.44 9.97, 9.44 1.93, 32 0" stroke="#000000" stroke-width="1" fill="none"></path></g><g stroke-linecap="round" transform="translate(930 53.88907346655313) rotate(0 120 270)"><path d="M32 0 M32 0 C70.53 -1, 106.73 -3.47, 208 0 M32 0 C71.35 -0.37, 111.8 0.49, 208 0 M208 0 C228.3 0.15, 239.17 10.73, 240 32 M208 0 C228.95 1.97, 241.47 12.41, 240 32 M240 32 C239.93 155.86, 239.7 280.79, 240 508 M240 32 C239.18 213.92, 239.68 396.58, 240 508 M240 508 C238.03 528.01, 228.41 541.4, 208 540 M240 508 C241.44 528.63, 228.1 541.93, 208 540 M208 540 C163.25 540.76, 116.63 540.71, 32 540 M208 540 C157.95 537.7, 109.84 537.95, 32 540 M32 540 C9.48 539.85, 0.4 530.69, 0 508 M32 540 C9.95 541.11, 2 528.45, 0 508 M0 508 C-0.94 405.71, -0.71 305.1, 0 32 M0 508 C-0.78 369.02, -0.92 230.55, 0 32 M0 32 C-0.86 9.38, 8.83 0.68, 32 0 M0 32 C-1.18 9.69, 9.8 -0.96, 32 0" stroke="#000000" stroke-width="1" fill="none"></path></g><g transform="translate(30 13.889073466553128) rotate(0 101.44442749023438 17.5)"><text x="101.44442749023438" y="0" font-family="Virgil, Segoe UI Emoji" font-size="28px" fill="#000000" text-anchor="middle" style="white-space: pre;" direction="ltr" dominant-baseline="text-before-edge">Content&amp;Tools</text></g><g transform="translate(290 13.889073466553128) rotate(0 66.96229553222656 17.5)"><text x="66.96229553222656" y="0" font-family="Virgil, Segoe UI Emoji" font-size="28px" fill="#000000" text-anchor="middle" style="white-space: pre;" direction="ltr" dominant-baseline="text-before-edge">Structure</text></g><g transform="translate(948.3530510698588 10) rotate(0 47.2362060546875 17.5)"><text x="47.2362060546875" y="0" font-family="Virgil, Segoe UI Emoji" font-size="28px" fill="#000000" text-anchor="middle" style="white-space: pre;" direction="ltr" dominant-baseline="text-before-edge">Helpers</text></g><g stroke-linecap="round"><g transform="translate(670 293.8890734665531) rotate(0 20 0)"><path d="M0 0 C6.67 0, 33.33 0, 40 0" stroke="#000000" stroke-width="1.5" fill="none" stroke-dasharray="8 9"></path></g></g><mask></mask><g stroke-linecap="round"><g transform="translate(670 293.8890734665531) rotate(0 20 30)"><path d="M0 0 C6.67 10, 33.33 50, 40 60" stroke="#000000" stroke-width="1.5" fill="none" stroke-dasharray="8 9"></path></g></g><mask></mask><g stroke-linecap="round"><g transform="translate(710 233.88907346655313) rotate(0 -20 30)"><path d="M0 0 C-6.67 10, -33.33 50, -40 60" stroke="#000000" stroke-width="1.5" fill="none" stroke-dasharray="8 9"></path></g></g><mask></mask><g stroke-linecap="round"><g transform="translate(510 113.88907346655313) rotate(0 -20 60)"><path d="M0 0 C-6.67 20, -33.33 100, -40 120" stroke="#000000" stroke-width="1.5" fill="none" stroke-dasharray="8 9"></path></g></g><mask></mask><g stroke-linecap="round"><g transform="translate(510 173.88907346655313) rotate(0 -20 30)"><path d="M0 0 C-6.67 10, -33.33 50, -40 60" stroke="#000000" stroke-width="1.5" fill="none" stroke-dasharray="8 9"></path></g></g><mask></mask><g stroke-linecap="round"><g transform="translate(510 233.88907346655313) rotate(0 -20 0)"><path d="M0 0 C-6.67 0, -33.33 0, -40 0" stroke="#000000" stroke-width="1.5" fill="none" stroke-dasharray="8 9"></path></g></g><mask></mask><g stroke-linecap="round"><g transform="translate(510 293.8890734665531) rotate(0 -20 -30)"><path d="M0 0 C-6.67 -10, -33.33 -50, -40 -60" stroke="#000000" stroke-width="1.5" fill="none" stroke-dasharray="8 9"></path></g></g><mask></mask><g stroke-linecap="round"><g transform="translate(510.8955770101212 353.89909367081407) rotate(0 -20.4477885050606 -60.005010102130484)"><path d="M0 0 C-6.82 -20, -34.08 -100.01, -40.9 -120.01" stroke="#000000" stroke-width="1.5" fill="none" stroke-dasharray="8 9"></path></g></g><mask></mask></svg>